<svg xmlns="http://www.w3.org/2000/svg" viewBox="0 0 512 512">
	<path d="M480.452 231.952C480.452 355.913 353.398 504.5 256 504.5S31.548 355.913 31.548 231.952 132.039 7.5 256 7.5s224.452 100.49 224.452 224.452z" fill="#c9c6ca" />
	<path d="M304.097 488.468c-97.398 0-224.452-156.604-224.452-280.565 0-78.304 40.123-147.207 100.906-187.367C93.713 51.531 31.548 134.466 31.548 231.952 31.548 355.912 158.602 504.5 256 504.5c19.859 0 40.95-6.261 61.947-17.147-4.665.665-9.299 1.115-13.85 1.115z" fill="#b7b2b8" />
	<path d="M174.911 335.316c-30.663 4.49-59.161-16.728-63.65-47.392l-6.968-47.589c-4.49-30.663 16.728-59.16 47.392-63.65 30.663-4.49 59.16 16.728 63.65 47.392l6.968 47.589c4.489 30.663-16.728 59.16-47.392 63.65z" fill="#6e5a64" />
	<path d="M196.383 315.968c-30.664 4.49-59.161-16.728-63.65-47.392l-11.311-77.253c-12.902 12.139-19.89 30.153-17.129 49.011l6.968 47.589c4.49 30.663 32.987 51.881 63.65 47.392 16.581-2.428 30.351-11.908 38.837-24.921-5.316 2.714-11.131 4.662-17.365 5.574z" fill="#5a4650" />
	<path d="M337.089 335.316c-30.663-4.49-51.881-32.987-47.392-63.65l6.968-47.589c4.49-30.663 32.987-51.881 63.65-47.392 30.663 4.49 51.881 32.987 47.392 63.65l-6.968 47.589c-4.49 30.663-32.987 51.881-63.65 47.392z" fill="#6e5a64" />
	<path d="M363.206 322.936c-30.664-4.49-51.881-32.987-47.392-63.65l11.311-77.253c-15.841 7.93-27.7 23.185-30.461 42.043l-6.968 47.589c-4.49 30.663 16.728 59.161 47.392 63.65 16.581 2.428 32.491-2.706 44.351-12.741-5.87 1.076-11.999 1.275-18.233.362z" fill="#5a4650" />
	<path d="M448.471 102.463a7.5 7.5 0 1 0-12.438 8.384c24.153 35.833 36.919 77.71 36.919 121.104 0 55.944-27.648 122.469-73.959 177.954-21.723 26.026-46.199 47.833-70.782 63.066C302.839 488.691 277.87 497 256 497c-37.121 0-81.933-23.71-122.946-65.05a7.5 7.5 0 0 0-10.648 10.564C166.215 486.673 214.909 512 256 512c48.413 0 106.173-34.573 154.508-92.483 48.493-58.099 77.444-128.217 77.444-187.565 0-46.393-13.653-91.17-39.481-129.489zM39.048 231.952c0-57.95 22.567-112.431 63.543-153.408C143.569 37.567 198.05 15 256 15c30.797 0 60.551 6.318 88.433 18.78 26.941 12.041 50.802 29.182 70.92 50.946a7.499 7.499 0 0 0 10.598.417 7.499 7.499 0 0 0 .417-10.598c-21.503-23.263-47.011-41.585-75.814-54.459C320.733 6.758 288.92 0 256 0 194.043 0 135.795 24.127 91.985 67.937c-43.81 43.81-67.937 102.058-67.937 164.015 0 30.042 7.022 62.078 20.872 95.215 12.725 30.448 31.033 60.856 52.945 87.938a7.484 7.484 0 0 0 5.835 2.782 7.5 7.5 0 0 0 5.826-12.217c-44.131-54.543-70.478-119.484-70.478-173.718z" />
	<path d="M152.772 184.351c7.08-1.036 14.114-.534 20.909 1.493a7.5 7.5 0 0 0 4.288-14.374c-8.905-2.657-18.113-3.316-27.37-1.961-34.707 5.081-58.809 37.45-53.728 72.156l6.967 47.59c4.626 31.596 31.869 54.404 62.901 54.404 3.054 0 6.146-.221 9.255-.676 34.706-5.081 58.808-37.45 53.728-72.156l-6.967-47.589c-1.46-9.977-5.31-19.561-11.132-27.716a7.498 7.498 0 0 0-10.461-1.747 7.499 7.499 0 0 0-1.747 10.461c4.506 6.313 7.366 13.437 8.499 21.174l6.967 47.59c3.883 26.522-14.537 51.259-41.059 55.142a48.795 48.795 0 0 1-7.073.517c-23.713-.002-44.534-17.431-48.069-41.575l-6.967-47.59c-3.882-26.523 14.537-51.26 41.059-55.143zM345.261 343.659c31.03-.003 58.275-22.81 62.901-54.404l6.967-47.59c1.861-12.716-.12-25.524-5.731-37.038a7.501 7.501 0 0 0-13.485 6.571c4.284 8.791 5.796 18.574 4.374 28.293l-6.967 47.59c-3.883 26.522-28.619 44.938-55.142 41.059-26.522-3.883-44.941-28.619-41.059-55.142l6.967-47.589c3.882-26.523 28.62-44.945 55.141-41.059 4.82.706 9.47 2.111 13.822 4.175a7.5 7.5 0 0 0 6.43-13.552 63.617 63.617 0 0 0-18.079-5.465c-34.708-5.083-67.076 19.021-72.156 53.728l-6.967 47.589c-5.081 34.707 19.021 67.076 53.728 72.156 3.112.457 6.2.678 9.256.678zM256 415.807c17.922 0 34.968-6.899 45.6-18.454a7.501 7.501 0 0 0-11.039-10.157c-7.841 8.522-20.761 13.61-34.561 13.61s-26.72-5.088-34.561-13.61a7.5 7.5 0 0 0-11.039 10.157c10.632 11.555 27.678 18.454 45.6 18.454z" />
</svg>