<svg width="134" height="134" xmlns="http://www.w3.org/2000/svg">
    <g fill-rule="nonzero" fill="none">
        <path d="M131.539 120.567H13.099V2.127a2.128 2.128 0 1 0-4.255 0v17.967H2.461a2.128 2.128 0 1 0 0 4.256h6.383v15.839H2.461a2.128 2.128 0 1 0 0 4.255h6.383v15.84H2.461a2.128 2.128 0 1 0 0 4.255h6.383v15.84H2.461a2.128 2.128 0 1 0 0 4.254h6.383v15.84H2.461a2.128 2.128 0 1 0 0 4.255h6.383v17.967c0 1.175.952 2.128 2.128 2.128h31.442v6.383a2.128 2.128 0 1 0 4.255 0v-6.383h49.173v6.383a2.128 2.128 0 1 0 4.255 0v-6.383h31.442a2.128 2.128 0 1 0 0-4.256z" fill="#9013FE" />
        <path d="M22.32 116.312a2.128 2.128 0 0 0 2.127-2.128V64.54h17.967v49.645a2.128 2.128 0 1 0 4.255 0v-29.55h16.785v29.55a2.128 2.128 0 1 0 4.255 0V82.506a2.128 2.128 0 0 0-2.127-2.128H46.669V62.411a2.128 2.128 0 0 0-2.128-2.127H22.32a2.128 2.128 0 0 0-2.128 2.127v51.773c0 1.175.953 2.128 2.128 2.128zM76.93 116.312a2.128 2.128 0 0 0 2.127-2.128V24.35h16.785v89.834a2.128 2.128 0 1 0 4.255 0v-69.74h17.967v69.74a2.128 2.128 0 1 0 4.255 0V42.317a2.128 2.128 0 0 0-2.128-2.128h-20.094V22.222a2.128 2.128 0 0 0-2.128-2.128H76.93a2.128 2.128 0 0 0-2.128 2.128v91.962c0 1.175.953 2.128 2.128 2.128z" fill="#50E38C" />
    </g>
</svg>