<svg xmlns="http://www.w3.org/2000/svg" viewBox="0 0 48 48">
    <path d="M37.44 10.9H32.9a.92.92 0 1 1 0-1.84h4.54a.92.92 0 1 1 0 1.84zM30.76 7.12a.91.91 0 0 1-.65-.27.92.92 0 0 1 0-1.3l4.27-4.28a.92.92 0 0 1 1.31 1.3l-4.28 4.28a.92.92 0 0 1-.65.27zM35 19a.92.92 0 0 1-.65-.27l-4.27-4.28a.92.92 0 1 1 1.3-1.3l4.28 4.28A.92.92 0 0 1 35 19z" fill="#252b33" />
    <path fill="#6d7c8c" d="M17.01 13.64V7.39h5.38v6.25" />
    <path d="M22.39 14.56a.92.92 0 0 1-.92-.92V8.31h-3.54v5.33a.92.92 0 0 1-1.84 0V7.39a.92.92 0 0 1 .91-.92h5.38a.92.92 0 0 1 .92.92v6.25a.92.92 0 0 1-.91.92z" fill="#252b33" />
    <path d="M10.56 21.18c0-4.16 3.72-7.52 8.31-7.52h1.66c4.59 0 8.31 3.36 8.31 7.52" fill="#fff" />
    <path d="M28.84 22.1a.92.92 0 0 1-.92-.92c0-3.64-3.32-6.6-7.39-6.6h-1.66c-4.07 0-7.39 3-7.39 6.6a.92.92 0 1 1-1.84 0c0-4.66 4.14-8.44 9.23-8.44h1.66c5.09 0 9.23 3.78 9.23 8.44a.92.92 0 0 1-.92.92z" fill="#252b33" />
    <path fill="#b1bfc9" d="M10.56 21.36h18.27v24.72H10.56z" />
    <path fill="#fc3768" d="M28.65 40.71H17.91V26.73h10.74" />
    <path d="M28.65 41.63H17.91a.92.92 0 0 1-.92-.92v-14a.92.92 0 0 1 .92-.92h10.74a.92.92 0 1 1 0 1.84h-9.82v12.16h9.82a.92.92 0 0 1 0 1.84z" fill="#252b33" />
    <path d="M28.48 36.43h-7.17a.92.92 0 0 1 0-1.84h7.17a.92.92 0 0 1 0 1.84zM28.48 32.85h-4.3a.92.92 0 0 1 0-1.84h4.3a.92.92 0 0 1 0 1.84z" fill="#252b33" />
    <path d="M28.84 47H10.56a.92.92 0 0 1-.92-.92V21.36a.92.92 0 0 1 .92-.92h18.28a.92.92 0 0 1 .92.92v24.72a.92.92 0 0 1-.92.92zm-17.36-1.84h16.44V22.28H11.48z" fill="#252b33" />
</svg>