<svg xmlns="http://www.w3.org/2000/svg" viewBox="0 0 512.004 512.004">
	<path d="M489.933 13.766c6.426-5.455 16.046.274 14.056 8.464-6.211 25.567-24.054 73.861-49.417 117.585l-60.659-61.417c29.771-14.117 66.911-39.923 96.02-64.632z" fill="#5a4650" />
	<path d="M495.091 17.679c1.058-2.022 1.309-4.064 1.008-5.949 4.934.293 9.289 4.742 7.89 10.501-6.211 25.567-24.054 73.861-49.417 117.585l-26.97-27.307c31.101-35.526 55.979-72.831 67.489-94.83zM21.824 13.766c-6.426-5.455-16.046.274-14.056 8.464 6.211 25.567 24.054 73.861 49.417 117.585l60.659-61.417c-29.771-14.117-66.911-39.923-96.02-64.632z" fill="#6e5a64" />
	<path d="M16.666 17.679c-1.058-2.022-1.309-4.064-1.008-5.949-4.934.293-9.289 4.742-7.89 10.501 6.211 25.567 24.054 73.861 49.417 117.585l26.97-27.307c-31.102-35.526-55.979-72.831-67.489-94.83z" fill="#5a4650" />
	<path d="M457.194 177.001l.054.052c-2.609-5.299-2.234-11.525 1.075-16.417a379.334 379.334 0 0 0 3.831-5.778c3.416-5.256 3.404-12.129-.095-17.329a249.673 249.673 0 0 0-70.003-69.253c-4.472-2.938-10.194-3.239-15.123-1.157a486.96 486.96 0 0 1-14.448 5.832c-4.072 1.569-8.529 1.265-12.488-.569l.003.003c-28.63-13.256-60.498-20.704-94.123-20.704s-65.492 7.448-94.123 20.704l.003-.003c-3.959 1.834-8.416 2.138-12.488.569a486.436 486.436 0 0 1-14.448-5.832c-4.929-2.083-10.65-1.781-15.123 1.157a249.7 249.7 0 0 0-70.003 69.253c-3.499 5.2-3.511 12.073-.095 17.329a379.334 379.334 0 0 0 3.831 5.778c3.309 4.892 3.684 11.118 1.075 16.417l.054-.052c-14.721 29.87-23.024 63.47-23.024 99.021 0 123.899 100.44 224.34 224.34 224.34s224.34-100.441 224.34-224.34c.002-35.552-8.301-69.151-23.022-99.021z" fill="#c864c8" />
	<path d="M255.878 359.481c-39.863 0-77.352-4.223-110.059-11.646-8.486-1.926-14.14 8.665-7.686 14.502 28.317 25.612 70.534 41.879 117.745 41.879s89.428-16.268 117.745-41.879c6.454-5.837.801-16.428-7.686-14.502-32.707 7.424-70.196 11.646-110.059 11.646z" fill="#6e5a64" />
	<path d="M287.927 468.313c-123.9 0-224.34-100.441-224.34-224.34 0-69.523 31.631-131.651 81.279-172.8-3.309-1.311-6.598-2.598-10.043-4.054-4.929-2.083-10.65-1.781-15.123 1.157a249.7 249.7 0 0 0-70.003 69.253c-3.499 5.2-3.511 12.073-.095 17.329a379.334 379.334 0 0 0 3.831 5.778c3.309 4.892 3.684 11.118 1.075 16.417l.054-.052c-14.721 29.87-23.024 63.47-23.024 99.021 0 123.899 100.44 224.34 224.34 224.34 70.113 0 132.694-32.18 173.832-82.556-38.646 31.559-87.996 50.507-141.783 50.507z" fill="#a54bbe" />
	<path d="M161.376 379.381c29.766 3.025 61.521 4.664 94.503 4.664s64.737-1.639 94.503-4.664c8.49-5.056 16.294-10.76 23.242-17.044 6.454-5.837.801-16.428-7.685-14.502-32.708 7.424-70.197 11.647-110.059 11.647s-77.352-4.223-110.059-11.647c-8.486-1.926-14.14 8.665-7.685 14.502 6.945 6.284 14.75 11.988 23.24 17.044z" fill="#5a4650" />
	<path d="M175.757 353.403v33.572c0 5.838 7.3 8.481 11.037 3.996l27.742-33.22c-13.348-1.012-26.339-2.422-38.779-4.348zM336 353.403v33.572c0 5.838-7.3 8.481-11.037 3.996l-27.742-33.22c13.347-1.012 26.339-2.422 38.779-4.348z" fill="#fff" />
	<path d="M171.751 292.046c-11.062 0-20.03-8.968-20.03-20.03v-16.024c0-11.062 8.968-20.03 20.03-20.03 11.062 0 20.03 8.968 20.03 20.03v16.024c0 11.062-8.968 20.03-20.03 20.03z" fill="#5a4650" />
	<path d="M191.781 255.991c0-12.372-11.217-22.124-24.036-19.641v15.635c0 13.275 10.761 24.036 24.036 24.036v-20.03z" fill="#6e5a64" />
	<path d="M340.006 292.046c-11.062 0-20.03-8.968-20.03-20.03v-16.024c0-11.062 8.968-20.03 20.03-20.03 11.062 0 20.03 8.968 20.03 20.03v16.024c0 11.062-8.968 20.03-20.03 20.03z" fill="#5a4650" />
	<path d="M360.036 255.991c0-12.372-11.217-22.124-24.036-19.641v15.635c0 13.275 10.761 24.036 24.036 24.036v-20.03z" fill="#6e5a64" />
	<path d="M504.684 6.462c-5.77-3.558-13.14-2.981-18.341 1.434-27.75 23.556-59.971 45.428-84.892 57.691a242.727 242.727 0 0 0-5.278-3.58c-6.474-4.251-14.757-4.924-22.16-1.796a479.148 479.148 0 0 1-14.224 5.741c-2.053.791-4.409.657-6.639-.375-30.646-14.197-63.373-21.395-97.272-21.395s-66.626 7.198-97.271 21.395c-2.229 1.032-4.586 1.167-6.639.375a477.669 477.669 0 0 1-14.226-5.742c-7.401-3.127-15.685-2.455-22.159 1.797a254.38 254.38 0 0 0-5.189 3.501C85.494 53.231 53.352 31.402 25.66 7.896 20.458 3.48 13.089 2.904 7.319 6.462 1.541 10.026-1.151 16.614.461 23.247c6.001 24.7 22.435 68.448 44.679 107.686-.554.804-1.118 1.598-1.664 2.409-5.192 7.716-5.256 17.766-.162 25.603a386.925 386.925 0 0 0 3.907 5.893c1.791 2.648 2 5.976.559 8.902-16.933 34.38-25.079 72.979-23.559 111.623 2.041 51.86 22.22 102.324 56.82 142.098a7.483 7.483 0 0 0 5.662 2.578 7.5 7.5 0 0 0 5.655-12.422c-32.367-37.206-51.242-84.384-53.149-132.843-1.422-36.156 6.194-72.259 22.027-104.406 3.793-7.703 3.184-16.873-1.591-23.933a366.847 366.847 0 0 1-3.755-5.663c-1.782-2.742-1.771-6.381.029-9.055 18.06-26.839 40.904-49.439 67.898-67.172 2.248-1.476 5.345-1.674 8.085-.517a496.222 496.222 0 0 0 14.671 5.922c5.875 2.264 12.388 1.994 18.337-.762 28.655-13.274 59.26-20.005 90.966-20.005s62.312 6.731 90.967 20.005c5.949 2.756 12.461 3.026 18.337.762a497.792 497.792 0 0 0 14.67-5.921c2.74-1.158 5.838-.959 8.086.517 9.214 6.053 18.258 12.968 26.881 20.553a7.5 7.5 0 0 0 9.907-11.263 264.823 264.823 0 0 0-9.872-8.262c24.842-13.182 55.015-34.017 81.196-56.241.183-.155.387-.331.759-.102.23.142.225.199.157.477-5.478 22.548-20.085 61.747-40.012 98.182a272.44 272.44 0 0 0-8.914-10.685 7.5 7.5 0 0 0-11.267 9.901c7.084 8.062 13.498 16.343 19.063 24.612 1.799 2.673 1.811 6.312.029 9.054a364.954 364.954 0 0 1-3.758 5.667c-4.773 7.057-5.382 16.224-1.59 23.923 14.731 29.909 22.201 62.094 22.201 95.661 0 58.47-22.924 113.289-64.549 154.36-41.617 41.063-96.758 63.274-155.27 62.459-50.542-.677-99.765-19.616-138.601-53.326a7.501 7.501 0 0 0-9.833 11.329c41.508 36.03 94.152 56.271 148.233 56.997 1.073.014 2.137.021 3.208.021 61.357 0 119.065-23.652 162.798-66.803 44.504-43.911 69.014-102.523 69.014-165.037 0-35.885-7.989-70.299-23.745-102.289-1.439-2.922-1.23-6.246.559-8.892a387.413 387.413 0 0 0 3.91-5.896c5.094-7.838 5.031-17.888-.162-25.603-.499-.741-1.013-1.482-1.524-2.223 22.298-39.286 38.776-83.133 44.786-107.872 1.614-6.633-1.078-13.222-6.856-16.786zm-449.77 111.18C35.056 81.276 20.502 42.203 15.037 19.706c-.068-.278-.073-.335.157-.477.372-.228.577-.052.759.102 26.117 22.17 56.206 42.958 81.013 56.145a254.788 254.788 0 0 0-42.052 42.166z" />
	<path d="M171.751 243.461a7.5 7.5 0 0 0 0-15c-15.18 0-27.53 12.35-27.53 27.53v16.024c0 15.18 12.35 27.53 27.53 27.53s27.53-12.35 27.53-27.53v-12.018a7.5 7.5 0 0 0-15 0v12.018c0 6.909-5.621 12.53-12.53 12.53s-12.53-5.621-12.53-12.53v-16.024c0-6.909 5.621-12.53 12.53-12.53zM340.006 243.461a7.5 7.5 0 0 0 0-15c-15.18 0-27.53 12.35-27.53 27.53v16.024c0 15.18 12.35 27.53 27.53 27.53s27.53-12.35 27.53-27.53v-12.018a7.5 7.5 0 0 0-15 0v12.018c0 6.909-5.621 12.53-12.53 12.53s-12.53-5.621-12.53-12.53v-16.024c-.001-6.909 5.621-12.53 12.53-12.53zM207.772 227.496a7.5 7.5 0 0 0 3.055-14.353l-72.109-32.106a7.498 7.498 0 0 0-9.902 3.801 7.5 7.5 0 0 0 3.801 9.902l72.109 32.106a7.48 7.48 0 0 0 3.046.65zM382.883 184.838a7.5 7.5 0 0 0-9.902-3.801l-72.109 32.106a7.5 7.5 0 0 0 6.101 13.703l72.109-32.106a7.5 7.5 0 0 0 3.801-9.902zM133.452 367.606a191.09 191.09 0 0 0 35.373 23.309c1.206 4.113 4.274 7.454 8.496 8.982 1.565.567 3.167.842 4.746.842 2.041 0 4.04-.467 5.868-1.349 21.608 8.18 44.383 12.327 67.768 12.327 23.461 0 46.306-4.173 67.975-12.405a13.472 13.472 0 0 0 6.013 1.427c1.579 0 3.182-.275 4.746-.841 4.294-1.555 7.394-4.986 8.555-9.197a191.204 191.204 0 0 0 34.961-23.094c5.457-4.542 7.113-11.737 4.121-17.903-3.28-6.761-11.044-10.321-18.883-8.653-34.465 7.324-70.629 11.038-107.487 11.038-36.861 0-73.025-3.714-107.488-11.039-7.84-1.664-15.603 1.894-18.883 8.655-2.994 6.165-1.338 13.359 4.119 17.901zm49.805 15.895V362.3a528.425 528.425 0 0 0 16.072 1.914l-16.072 19.287zm145.243 0l-16.102-19.322a526.865 526.865 0 0 0 16.102-1.927v21.249zm37.807-27.78c1.157-.245 1.806.063 2.095.316l-.046.039a176.215 176.215 0 0 1-24.856 17.289v-13.359a501.508 501.508 0 0 0 22.807-4.285zm-72.127 10.026l18.094 21.712c-18.142 6.138-37.122 9.256-56.572 9.256-19.348 0-38.236-3.087-56.296-9.163l18.152-21.782a553.843 553.843 0 0 0 76.622-.023zm-149.084-10.026a504.786 504.786 0 0 0 23.161 4.344v13.513a176.17 176.17 0 0 1-25.209-17.501l-.046-.039c.289-.254.937-.562 2.094-.317z" />
</svg>