<svg xmlns="http://www.w3.org/2000/svg" viewBox="0 0 48 48">
    <path d="M23 28.5h4a2 2 0 0 1 2 2v15a1 1 0 0 1-1 1h-5a2 2 0 0 1-2-2v-14a2 2 0 0 1 2-2z" fill="#6d7c8c" />
    <path d="M45 9.5h-2a1 1 0 0 1 0-2h2a1 1 0 0 1 0 2zM25 28.5a1 1 0 0 1-1-1v-4a1 1 0 0 0-1-1H5a3 3 0 0 1-3-3v-9a3 3 0 0 1 3-3h3a1 1 0 0 1 0 2H5a1 1 0 0 0-1 1v9a1 1 0 0 0 1 1h18a3 3 0 0 1 3 3v4a1 1 0 0 1-1 1z" fill="#252b33" />
    <path d="M29 47.5h-8a1 1 0 0 1-1-1v-15a4 4 0 0 1 4-4h2a4 4 0 0 1 4 4v15a1 1 0 0 1-1 1zm-7-2h6v-14a2 2 0 0 0-2-2h-2a2 2 0 0 0-2 2z" fill="#252b33" />
    <rect x="7" y="1.5" width="36" height="14" rx="4" ry="4" fill="#fc3768" />
    <path fill="#252b33" d="M24 36.5h2v2h-2zM24 32.5h2v2h-2zM24 40.5h2v2h-2z" />
</svg>