<svg width="134" height="120" xmlns="http://www.w3.org/2000/svg">
    <g fill-rule="nonzero" fill="none">
        <path d="M113.733 40.339a89.07 89.07 0 0 0-8.006-2.628 89.192 89.192 0 0 0 1.727-8.248c2.181-13.832-.229-23.534-6.787-27.32C98.761 1.04 96.57.482 94.155.482c-7.626 0-17.262 5.664-26.984 15.229a89.268 89.268 0 0 0-6.383-5.721C49.9 1.186 40.29-1.58 33.734 2.208c-4.215 2.433-6.778 7.402-7.412 14.37a2.127 2.127 0 1 0 4.238.385c.35-3.857 1.555-8.907 5.301-11.07 4.854-2.803 12.965-.103 22.251 7.406a85.3 85.3 0 0 1 6.088 5.456c-4.077 4.339-8.135 9.332-12.03 14.85-6.855.624-13.383 1.67-19.374 3.106-1.05-4.078-1.77-7.97-2.125-11.582a2.127 2.127 0 1 0-4.235.417c.376 3.822 1.137 7.933 2.246 12.236a88.674 88.674 0 0 0-7.748 2.557C7.864 45.366.667 52.305.667 59.877c0 7.573 7.197 14.512 20.267 19.538a89.07 89.07 0 0 0 8.005 2.629 89.192 89.192 0 0 0-1.727 8.247c-2.18 13.832.23 23.535 6.788 27.321 1.906 1.1 4.097 1.66 6.511 1.66 7.539 0 17.042-5.537 26.65-14.903a88.865 88.865 0 0 0 6.185 5.527c7.705 6.231 14.768 9.436 20.564 9.436 2.394 0 4.573-.547 6.49-1.654 6.558-3.786 8.968-13.489 6.787-27.32-.42-2.658-1-5.415-1.727-8.247 4.38-1.207 8.409-2.627 11.977-4.244a2.127 2.127 0 1 0-1.756-3.876c-3.38 1.531-7.2 2.88-11.36 4.026-1.72-5.748-4.01-11.748-6.802-17.818 2.917-6.276 5.301-12.483 7.076-18.421 15.792 4.421 25.15 11.404 25.15 18.1 0 4.325-3.772 7.893-6.936 10.125a2.128 2.128 0 0 0 2.452 3.478c5.717-4.033 8.739-8.737 8.739-13.604 0-7.572-7.197-14.511-20.267-19.538zm-19.578-35.6c1.658 0 3.133.366 4.384 1.089 4.854 2.802 6.572 11.176 4.711 22.972a85.046 85.046 0 0 1-1.642 7.85c-6.016-1.427-12.567-2.463-19.442-3.074-3.857-5.459-7.905-10.45-12.021-14.824a92.595 92.595 0 0 1 2.26-2.156C80.702 8.95 88.426 4.739 94.154 4.739zM67.177 21.803c3.21 3.422 6.383 7.239 9.454 11.377a170.932 170.932 0 0 0-18.902.015c3.066-4.13 6.243-7.963 9.448-11.392zm-.015 76.499c-3.324-3.524-6.609-7.473-9.783-11.764a170.484 170.484 0 0 0 19.563.015c-3.172 4.273-6.461 8.23-9.78 11.749zm.171-15.73c-4.571 0-8.958-.177-13.138-.506a165.056 165.056 0 0 1-6.783-10.776 163.88 163.88 0 0 1-5.86-11.107 164.764 164.764 0 0 1 12.986-22.52c4.077-.312 8.348-.48 12.795-.48 4.333 0 8.498.16 12.48.456a164.937 164.937 0 0 1 6.908 10.956 164.895 164.895 0 0 1 6.1 11.596 165.31 165.31 0 0 1-12.678 21.881c-4.175.329-8.463.5-12.81.5zM48.72 81.535c-5.235-.605-10.094-1.455-14.526-2.499 1.346-4.48 3.052-9.123 5.086-13.841a170.63 170.63 0 0 0 9.44 16.34zm.338-43.355a170.6 170.6 0 0 0-9.794 16.996c-2.14-4.913-3.932-9.752-5.33-14.397 4.596-1.095 9.657-1.981 15.124-2.6zM4.922 59.877c0-6.659 9.258-13.603 24.896-18.028 1.768 5.901 4.142 12.09 7.036 18.34-2.783 6.06-5.068 12.05-6.783 17.788-15.791-4.422-25.149-11.405-25.149-18.1zm35.59 55.139c-1.658 0-3.133-.367-4.384-1.09-4.855-2.802-6.572-11.175-4.712-22.972.399-2.527.95-5.151 1.643-7.85 5.82 1.38 12.142 2.395 18.772 3.013 3.958 5.62 8.119 10.747 12.35 15.22a92.1 92.1 0 0 1-1.919 1.822c-8.298 7.646-16.022 11.857-21.75 11.857zm62.472-23.996c1.86 11.797.143 20.17-4.711 22.973-4.855 2.802-12.965.103-22.251-7.406a84.774 84.774 0 0 1-5.876-5.248c4.188-4.42 8.358-9.533 12.358-15.2 6.648-.61 13-1.616 18.834-2.981a84.998 84.998 0 0 1 1.646 7.862zm-2.789-11.958c-4.557 1.059-9.45 1.892-14.564 2.48a171.045 171.045 0 0 0 9.462-16.348c2.04 4.727 3.752 9.38 5.102 13.868zM95.112 55.19a170.427 170.427 0 0 0-4.705-8.723 170.396 170.396 0 0 0-5.129-8.326c5.491.609 10.575 1.488 15.196 2.576-1.406 4.68-3.206 9.539-5.362 14.473z" fill="#9013FE" />
        <path d="M67.333 49.239c-5.866 0-10.638 4.772-10.638 10.638s4.772 10.638 10.638 10.638 10.639-4.772 10.639-10.638S73.199 49.24 67.333 49.24zm0 17.021a6.39 6.39 0 0 1-6.383-6.383 6.39 6.39 0 0 1 6.383-6.383 6.39 6.39 0 0 1 6.383 6.383 6.39 6.39 0 0 1-6.383 6.383z" fill="#50E38C" />
    </g>
</svg>