<svg xmlns="http://www.w3.org/2000/svg" viewBox="0 0 512.003 512.003">
	<path d="M340.18 231.462a7.5 7.5 0 0 0 0-15c-15.187 0-27.543 12.355-27.543 27.542v16.034c0 15.187 12.356 27.543 27.543 27.543s27.542-12.356 27.542-27.543v-12.025a7.5 7.5 0 0 0-15 0v12.025c0 6.916-5.626 12.543-12.542 12.543s-12.543-5.627-12.543-12.543v-16.034c0-6.916 5.627-12.542 12.543-12.542zM216.404 360.252a7.5 7.5 0 0 0 7.5 7.5c.648 0 65.192.261 100.152 22.851a7.494 7.494 0 0 0 10.369-2.229 7.5 7.5 0 0 0-2.229-10.37c-38.636-24.965-105.466-25.252-108.292-25.252a7.5 7.5 0 0 0-7.5 7.5z" />
	<path d="M454.101 93.875c-2.971-3.621-7.38-5.698-12.097-5.698l-197.476.007 100.11-56.312a239.87 239.87 0 0 1 63.914 37.577 7.5 7.5 0 0 0 9.51-11.6C369.192 17.786 307.364-2.658 244.008.277 180.2 3.235 120.165 29.758 74.962 74.962 28.644 121.279 2.063 182.827.115 248.268-1.824 313.415 20.757 376.163 63.7 424.952a7.478 7.478 0 0 0 5.633 2.545 7.5 7.5 0 0 0 5.627-12.455c-29.08-33.04-48.239-72.883-56.022-115.477L144.28 242.69v17.348c0 15.187 12.355 27.543 27.542 27.543s27.542-12.356 27.542-27.543v-12.025a7.5 7.5 0 0 0-15 0v12.025c0 6.916-5.626 12.543-12.542 12.543s-12.542-5.627-12.542-12.543v-16.034c0-6.916 5.626-12.542 12.542-12.542a7.493 7.493 0 0 0 6.802-4.356l114.078-51.764h24.673c8.243 6.635 38.837 29.489 81.112 39.896a7.504 7.504 0 0 0 9.076-5.49 7.501 7.501 0 0 0-5.49-9.076c-24.423-6.012-44.906-16.73-58.606-25.331h139.672c10.35 29.166 15.063 60.335 13.604 91.92-2.775 60.079-27.745 116.607-70.309 159.172-43.603 43.603-101.542 68.626-163.146 70.459-61.328 1.822-120.402-19.43-166.328-59.851a7.5 7.5 0 0 0-9.91 11.26c46.854 41.239 106.58 63.701 168.942 63.7 2.577 0 5.158-.038 7.742-.115 65.441-1.947 126.989-28.528 173.306-74.846 45.214-45.214 71.738-105.264 74.686-169.086 2.928-63.387-17.536-125.21-57.625-174.079zM244.702 15.261c27.69-1.279 55.06 2.186 81.042 10.028L257.477 63.69 136.282 46.787c32.852-18.818 69.903-29.74 108.42-31.526zM85.568 85.568a241.954 241.954 0 0 1 31.243-26.352l119.09 16.609-21.969 12.358-130.923.005c.85-.875 1.694-1.755 2.559-2.62zm-56.754 89.775h30.169l-36.401 20.476a239.675 239.675 0 0 1 6.232-20.476zm122.939-15a7.5 7.5 0 0 0 0 15h104.648L16.642 284.135a243.324 243.324 0 0 1-1.533-35.421 242.482 242.482 0 0 1 3.31-33.344l71.16-40.027h30.108a7.5 7.5 0 0 0 0-15H34.696c8.845-20.468 20.561-39.698 34.901-57.154l372.407-.013c.191 0 .396.087.499.212a239.94 239.94 0 0 1 34.734 56.955H151.753z" />
</svg>