<svg width="15" height="17" viewBox="0 0 15 17" fill="none" xmlns="http://www.w3.org/2000/svg">
    <path d="M8.36167 16.423C7.19656 16.423 6.03145 16.2307 5.06053 15.8461C4.0896 15.4615 3.11868 14.8846 2.34194 14.3076C1.5652 13.5384 0.982642 12.7692 0.594272 11.8077C0.205902 10.8461 0.0117188 9.69227 0.0117188 8.53842C0.0117188 7.38458 0.205902 6.23073 0.594272 5.26919C0.982642 4.30765 1.5652 3.53842 2.34194 2.76919C3.11868 1.99996 3.89542 1.61535 5.06053 1.23073C6.03145 0.846116 7.19656 0.653809 8.36167 0.653809C9.13841 0.653809 9.91515 0.846116 10.6919 1.03842C11.4686 1.23073 12.0512 1.61535 12.4396 1.80765C13.0221 1.99996 13.6047 2.38458 13.993 2.76919C14.3814 3.15381 14.7698 3.73073 14.964 4.11535L12.0512 5.4615C11.6628 4.88458 11.2744 4.30765 10.4977 3.92304C9.91515 3.53842 9.13841 3.34612 8.36167 3.34612C7.58493 3.34612 7.00237 3.53842 6.41982 3.73073C5.83726 3.92304 5.4489 4.30765 4.86634 4.69227C4.47797 5.07688 4.0896 5.65381 3.89542 6.23073C3.70123 6.80765 3.50705 7.57688 3.50705 8.15381C3.50705 8.92304 3.70123 9.49996 3.89542 10.2692C4.0896 10.8461 4.47797 11.423 4.86634 11.8077C5.4489 12.3846 5.83726 12.7692 6.41982 13.1538C7.00237 13.3461 7.58493 13.5384 8.36167 13.5384C9.13841 13.5384 9.91515 13.3461 10.4977 12.9615C11.0803 12.5769 11.6628 12 12.0512 11.423L14.964 12.7692C14.7698 13.1538 14.3814 13.7307 13.993 14.1153C13.6047 14.5 13.2163 14.8846 12.6337 15.2692C12.0512 15.6538 11.4686 15.8461 10.8861 16.0384C10.1093 16.2307 9.33259 16.423 8.36167 16.423Z" fill="black" />
</svg>