<svg width="187" height="25" viewBox="0 0 187 25" fill="none" xmlns="http://www.w3.org/2000/svg">
    <path d="M8.73832 19.2308L5.82554 13.8462H3.30114V19.2308H0V3.84619H7.37902C8.15576 3.84619 8.9325 4.0385 9.51506 4.23081C10.0976 4.42311 10.6802 4.80773 11.0685 5.19235C11.4569 5.57696 11.8453 6.15388 12.0395 6.73081C12.2336 7.30773 12.4278 8.07696 12.4278 8.65388C12.4278 9.42312 12.2336 10 12.0395 10.3847C12.0395 11.1539 11.8453 11.5385 11.4569 11.9231C11.0685 12.3077 10.6802 12.6923 10.2918 12.8847C9.90343 13.077 9.51506 13.2693 9.12669 13.4616L12.622 19.4231H8.73832V19.2308ZM6.79647 10.9616C7.37902 10.9616 7.96158 10.7693 8.54413 10.3847C8.9325 10 9.12669 9.42311 9.12669 8.84619C9.12669 8.26927 8.9325 7.69235 8.54413 7.30773C7.96158 6.92311 7.37902 6.73081 6.79647 6.73081H3.30114V10.9616H6.79647Z" fill="black" />
    <path d="M22.9136 19.6153C21.7485 19.6153 20.5834 19.423 19.6124 19.0384C18.6415 18.6538 17.6706 18.0769 17.088 17.3077C16.5055 16.5384 15.9229 15.7692 15.5346 14.8077C14.952 13.8461 14.7578 12.6923 14.7578 11.5384C14.7578 10.3846 14.952 9.42304 15.5346 8.4615C15.9229 7.49996 16.5055 6.73073 17.2822 5.9615C18.059 5.19227 18.8357 4.61535 19.8066 4.23073C20.7775 3.84612 21.9427 3.65381 23.1078 3.65381C24.2729 3.65381 25.438 3.84612 26.4089 4.23073C27.3798 4.61535 28.3507 5.19227 28.9333 5.9615C29.71 6.73073 30.2926 7.49996 30.681 8.4615C30.8752 9.42304 31.0693 10.3846 31.0693 11.5384C31.0693 12.6923 30.8752 13.8461 30.4868 14.8077C30.0984 15.7692 29.5159 16.5384 28.7391 17.3077C27.9624 18.0769 27.1856 18.6538 26.2147 19.0384C25.2438 19.423 24.0787 19.6153 22.9136 19.6153ZM22.9136 16.5384C23.6903 16.5384 24.2729 16.3461 24.8554 16.1538C25.438 15.9615 26.0205 15.5769 26.4089 15C26.7973 14.8077 27.1856 14.2307 27.3798 13.6538C27.574 13.0769 27.7682 12.3077 27.7682 11.7307C27.7682 10.9615 27.574 10.3846 27.3798 9.80765C27.1856 9.03842 26.7973 8.4615 26.4089 7.88458C26.0205 7.49996 25.438 7.11535 24.8554 6.73073C24.2729 6.53842 23.6903 6.34612 22.9136 6.34612C22.1368 6.34612 21.5543 6.53842 20.9717 6.73073C20.3892 6.92304 19.8066 7.30765 19.4182 7.88458C19.0299 8.4615 18.8357 9.03842 18.6415 9.61535C18.4473 10.1923 18.2531 10.9615 18.2531 11.5384C18.2531 12.3077 18.4473 12.8846 18.6415 13.4615C18.8357 14.0384 19.2241 14.6153 19.6124 15C20.0008 15.3846 20.5834 15.7692 21.1659 16.1538C21.5543 16.5384 22.331 16.5384 22.9136 16.5384Z" fill="black" />
    <path d="M41.3617 19.423C40.1966 19.423 39.0315 19.2307 38.0605 18.8461C37.0896 18.4615 36.1187 17.8846 35.3419 17.3076C34.5652 16.5384 33.9826 15.7692 33.5943 14.8077C33.2059 13.8461 33.0117 12.6923 33.0117 11.5384C33.0117 10.3846 33.2059 9.23073 33.5943 8.26919C33.9826 7.30765 34.5652 6.53842 35.3419 5.76919C36.1187 4.99996 36.8954 4.61535 38.0605 4.23073C39.0315 3.84612 40.1966 3.65381 41.3617 3.65381C42.1384 3.65381 42.9151 3.84612 43.6919 4.03842C44.4686 4.23073 45.0512 4.61535 45.4396 4.80765C46.0221 4.99996 46.6047 5.38458 46.993 5.76919C47.3814 6.15381 47.7698 6.73073 47.964 7.11535L45.0512 8.4615C44.6628 7.88458 44.2744 7.30765 43.4977 6.92304C42.9151 6.53842 42.1384 6.34612 41.3617 6.34612C40.5849 6.34612 40.0024 6.53842 39.4198 6.73073C38.8373 6.92304 38.4489 7.30765 37.8663 7.69227C37.478 8.07688 37.0896 8.65381 36.8954 9.23073C36.7012 9.80765 36.507 10.5769 36.507 11.1538C36.507 11.923 36.7012 12.5 36.8954 13.2692C37.0896 13.8461 37.478 14.423 37.8663 14.8077C38.4489 15.3846 38.8373 15.7692 39.4198 16.1538C40.0024 16.3461 40.5849 16.5384 41.3617 16.5384C42.1384 16.5384 42.9151 16.3461 43.4977 15.9615C44.0803 15.5769 44.6628 15 45.0512 14.423L47.964 15.7692C47.7698 16.1538 47.3814 16.7307 46.993 17.1153C46.6047 17.5 46.2163 17.8846 45.6337 18.2692C45.0512 18.6538 44.4686 18.8461 43.8861 19.0384C43.1093 19.2307 42.3326 19.423 41.3617 19.423Z" fill="black" />
    <path d="M60.3913 19.2308L55.7309 13.077L54.5658 14.4231V19.2308H51.2646V3.84619H54.5658V10.7693L60.003 3.84619H64.0808L57.8669 11.1539L64.4692 19.4231H60.3913V19.2308Z" fill="black" />
    <path d="M67.3818 19.4229V4.03833H78.4504V6.92295H70.683V10.1922H78.2562V13.0768H70.683V16.5383H78.4504V19.4229H67.3818Z" fill="black" />
    <path d="M86.2181 19.4229V6.92295H81.5576V4.03833H93.9855V6.92295H89.5192V19.4229H86.2181Z" fill="black" />
    <path d="M132.24 19.4232V4.03857H143.309V6.92319H135.541V10.1924H143.115V13.077H135.541V19.4232H132.24Z" fill="black" />
    <path d="M146.998 19.4232V4.03857H150.299V19.4232H146.998Z" fill="black" />
    <path d="M163.115 19.4232L160.008 14.0386H157.678V19.4232H154.377V4.03857H161.756C162.533 4.03857 163.309 4.23088 163.892 4.42319C164.475 4.6155 165.057 5.00011 165.445 5.38473C165.834 5.76934 166.222 6.34627 166.416 6.92319C166.611 7.50011 166.805 8.26934 166.805 8.84627C166.805 9.6155 166.611 10.1924 166.416 10.577C166.222 11.154 166.028 11.5386 165.64 11.9232C165.251 12.3078 164.863 12.6924 164.475 12.8847C164.086 13.077 163.698 13.2693 163.309 13.4617L166.805 19.4232H163.115ZM161.173 11.154C161.756 11.154 162.339 10.9617 162.921 10.577C163.309 10.1924 163.504 9.6155 163.504 9.03857C163.504 8.46165 163.309 7.88473 162.921 7.50011C162.533 7.1155 161.95 6.92319 161.173 6.92319H157.678V11.154H161.173Z" fill="black" />
    <path d="M183.699 19.4232V8.65396L179.233 19.4232H177.874L173.408 8.65396V19.4232H170.106V4.03857H174.767L178.456 13.2693L182.146 4.03857H186.806V19.4232H183.699Z" fill="black" />
    <path d="M124.861 12.5C124.861 5.57692 119.23 0 112.239 0C105.249 0 99.6172 5.57692 99.6172 12.5C99.6172 19.4231 105.249 25 112.239 25C119.23 25 124.861 19.4231 124.861 12.5ZM109.326 20.7692C108.744 20.9615 108.744 20.5769 108.938 20.3846C108.938 20.1923 109.132 20.1923 109.132 20C110.492 18.4615 111.462 17.8846 109.715 17.8846C107.967 17.8846 107.385 17.8846 106.996 17.3077C106.608 16.9231 106.414 16.1538 106.414 14.6154C106.414 12.8846 105.831 13.8462 104.278 15.1923C104.083 15.3846 104.083 15.3846 103.889 15.3846C103.695 15.5769 103.307 15.5769 103.501 15C103.695 13.8462 104.666 11.1538 106.025 10.3846C107.773 9.23077 109.521 9.23077 110.103 8.84615C114.181 5.96154 117.871 4.80769 118.841 5.38461C119.424 6.15385 118.259 10 115.346 14.0385C114.958 14.6154 114.958 16.3462 113.793 18.0769C113.21 19.6154 110.492 20.5769 109.326 20.7692Z" fill="#EF4423" />
    <path d="M115.152 11.5384C115.152 12.6923 114.181 13.6538 112.822 13.6538C111.656 13.6538 110.686 12.6923 110.686 11.3461C110.686 10.1923 111.656 9.23071 113.016 9.23071C114.375 9.42302 115.346 10.3846 115.152 11.5384Z" fill="#EF4423" />
</svg>