<svg width="26" height="25" viewBox="0 0 26 25" fill="none" xmlns="http://www.w3.org/2000/svg">
    <path d="M25.8612 12.5C25.8612 5.57692 20.2298 0 13.2392 0C6.24855 0 0.617188 5.57692 0.617188 12.5C0.617188 19.4231 6.24855 25 13.2392 25C20.2298 25 25.8612 19.4231 25.8612 12.5ZM10.3264 20.7692C9.74387 20.9615 9.74387 20.5769 9.93805 20.3846C9.93805 20.1923 10.1322 20.1923 10.1322 20C11.4915 18.4615 12.4625 17.8846 10.7148 17.8846C8.96713 17.8846 8.38458 17.8846 7.99621 17.3077C7.60784 16.9231 7.41365 16.1538 7.41365 14.6154C7.41365 12.8846 6.8311 13.8462 5.27762 15.1923C5.08344 15.3846 5.08344 15.3846 4.88925 15.3846C4.69507 15.5769 4.3067 15.5769 4.50088 15C4.69507 13.8462 5.66599 11.1538 7.02528 10.3846C8.77295 9.23077 10.5206 9.23077 11.1032 8.84615C15.181 5.96154 18.8706 4.80769 19.8415 5.38461C20.424 6.15385 19.2589 10 16.3462 14.0385C15.9578 14.6154 15.9578 16.3462 14.7927 18.0769C14.2101 19.6154 11.4915 20.5769 10.3264 20.7692Z" fill="#EF4423" />
    <path d="M16.1518 11.5384C16.1518 12.6923 15.1809 13.6538 13.8216 13.6538C12.6565 13.6538 11.6855 12.6923 11.6855 11.3461C11.6855 10.1923 12.6565 9.23071 14.0158 9.23071C15.3751 9.42302 16.346 10.3846 16.1518 11.5384Z" fill="#EF4423" />
</svg>