<svg width="18" height="17" viewBox="0 0 18 17" fill="none" xmlns="http://www.w3.org/2000/svg">
    <path d="M8.91358 16.6153C7.74847 16.6153 6.58336 16.423 5.61243 16.0384C4.64151 15.6538 3.67059 15.0769 3.08803 14.3077C2.50548 13.5384 1.92292 12.7692 1.53455 11.8077C0.951997 10.8461 0.757812 9.69227 0.757812 8.53842C0.757812 7.38458 0.951997 6.42304 1.53455 5.4615C1.92292 4.49996 2.50548 3.73073 3.28221 2.9615C4.05895 2.19227 4.83569 1.61535 5.80662 1.23073C6.77754 0.846116 7.94265 0.653809 9.10776 0.653809C10.2729 0.653809 11.438 0.846116 12.4089 1.23073C13.3798 1.61535 14.3507 2.19227 14.9333 2.9615C15.71 3.73073 16.2926 4.49996 16.681 5.4615C16.8752 6.42304 17.0693 7.38458 17.0693 8.53842C17.0693 9.69227 16.8752 10.8461 16.4868 11.8077C16.0984 12.7692 15.5159 13.5384 14.7391 14.3077C13.9624 15.0769 13.1856 15.6538 12.2147 16.0384C11.2438 16.423 10.0787 16.6153 8.91358 16.6153ZM8.91358 13.5384C9.69031 13.5384 10.2729 13.3461 10.8554 13.1538C11.438 12.9615 12.0205 12.5769 12.4089 12C12.7973 11.8077 13.1856 11.2307 13.3798 10.6538C13.574 10.0769 13.7682 9.30765 13.7682 8.73073C13.7682 7.9615 13.574 7.38458 13.3798 6.80765C13.1856 6.03842 12.7973 5.4615 12.4089 4.88458C12.0205 4.49996 11.438 4.11535 10.8554 3.73073C10.2729 3.53842 9.69031 3.34612 8.91358 3.34612C8.13684 3.34612 7.55428 3.53842 6.97173 3.73073C6.38917 3.92304 5.80662 4.30765 5.41825 4.88458C5.02988 5.4615 4.83569 6.03842 4.64151 6.61535C4.44732 7.19227 4.25314 7.9615 4.25314 8.53842C4.25314 9.30765 4.44732 9.88458 4.64151 10.4615C4.83569 11.0384 5.22406 11.6153 5.61243 12C6.0008 12.3846 6.58336 12.7692 7.16591 13.1538C7.55428 13.5384 8.33102 13.5384 8.91358 13.5384Z" fill="black" />
</svg>