<svg width="13" height="17" viewBox="0 0 13 17" fill="none" xmlns="http://www.w3.org/2000/svg">
    <path d="M8.73832 16.2308L5.82554 10.8462H3.30114V16.2308H0V0.846191H7.37902C8.15576 0.846191 8.9325 1.0385 9.51506 1.23081C10.0976 1.42311 10.6802 1.80773 11.0685 2.19235C11.4569 2.57696 11.8453 3.15388 12.0395 3.73081C12.2336 4.30773 12.4278 5.07696 12.4278 5.65388C12.4278 6.42312 12.2336 7.00004 12.0395 7.38465C12.0395 8.15388 11.8453 8.5385 11.4569 8.92311C11.0685 9.30773 10.6802 9.69235 10.2918 9.88465C9.90343 10.077 9.51506 10.2693 9.12669 10.4616L12.622 16.4231H8.73832V16.2308ZM6.79647 7.96158C7.37902 7.96158 7.96158 7.76927 8.54413 7.38465C8.9325 7.00004 9.12669 6.42311 9.12669 5.84619C9.12669 5.26927 8.9325 4.69235 8.54413 4.30773C7.96158 3.92311 7.37902 3.73081 6.79647 3.73081H3.30114V7.96158H6.79647Z" fill="black" />
</svg>